<?xml version="1.0" encoding="UTF-8"?>
<svg version="1.1" xmlns="http://www.w3.org/2000/svg" width="426" height="290">
<path d="M0 0 C140.58 0 281.16 0 426 0 C426 95.7 426 191.4 426 290 C285.42 290 144.84 290 0 290 C0 194.3 0 98.6 0 0 Z " fill="#867DA1" transform="translate(0,0)"/>
<path d="M0 0 C1.34416179 -0.00330313 2.68832259 -0.00702964 4.03248215 -0.01114148 C7.71602366 -0.02111844 11.39954888 -0.0248713 15.08310199 -0.02753079 C19.06013344 -0.03144663 23.03715214 -0.04102398 27.01417542 -0.04974365 C36.61319002 -0.06947112 46.21220563 -0.07956916 55.81123543 -0.08847144 C60.33700758 -0.09286009 64.86277857 -0.09822537 69.3885498 -0.10346031 C84.44210568 -0.12046822 99.49566085 -0.13496134 114.54922485 -0.14220905 C118.45233155 -0.14411879 122.35543825 -0.14603915 126.25854492 -0.147995 C127.22858279 -0.14847874 128.19862065 -0.14896248 129.1980536 -0.14946087 C144.90440415 -0.15775738 160.61067846 -0.18308985 176.31699574 -0.21557567 C192.45951844 -0.24869027 208.60200245 -0.26666175 224.74455929 -0.26985329 C233.80105764 -0.27201422 242.85744476 -0.28070173 251.91390991 -0.30631447 C259.62816501 -0.32808161 267.34228183 -0.3360424 275.05656415 -0.32634769 C278.98759648 -0.32182045 282.91834387 -0.3235965 286.84933662 -0.34310913 C290.45832828 -0.36086757 294.06682984 -0.35964211 297.67582762 -0.34421184 C299.5781666 -0.34075067 301.48051149 -0.35676681 303.38277721 -0.37381631 C319.69082774 -0.2536589 336.02011452 4.79778194 348.0715332 16.21357727 C358.89258465 28.01186023 361.75044213 39.44058372 361.22387695 55.10029602 C360.45702983 68.09102282 354.2174414 78.71316103 344.8293457 87.56123352 C330.39057445 99.10088141 312.60222452 101.3004644 294.79110718 101.28761292 C293.49543119 101.29058404 292.1997552 101.29355516 290.86481631 101.29661632 C287.28840517 101.3046348 283.71201415 101.30647299 280.13559508 101.30721378 C276.27039417 101.30907335 272.40520348 101.31662511 268.54000854 101.323349 C260.09765625 101.33689566 251.65530872 101.34295117 243.21294737 101.34735966 C237.93572229 101.35012802 232.65849903 101.35436641 227.38127518 101.35886383 C212.7531235 101.37105118 198.12497328 101.38135189 183.49681664 101.38473892 C182.09415035 101.38506827 182.09415035 101.38506827 180.66314737 101.38540427 C179.25724436 101.38573169 179.25724436 101.38573169 177.82293928 101.38606572 C175.92387032 101.38650918 174.02480137 101.38695574 172.12573242 101.3874054 C170.71274543 101.38773754 170.71274543 101.38773754 169.27121325 101.38807639 C154.01442785 101.39202276 138.75769026 101.40947427 123.50092332 101.43276492 C107.81486193 101.45651651 92.1288245 101.46894249 76.44274485 101.47010684 C67.64451593 101.4710214 58.84634934 101.47671855 50.04813766 101.49492645 C42.55536187 101.51037885 35.06266769 101.51541769 27.56987898 101.50718835 C23.75229431 101.50330011 19.93487371 101.50412133 16.11730957 101.5182457 C11.96500187 101.53346708 7.81305869 101.52506439 3.66073608 101.5146637 C2.47324623 101.5227201 1.28575637 101.53077651 0.06228197 101.53907704 C-11.37067608 101.4725231 -23.26900536 100.01093609 -33.4675293 94.52217102 C-34.46224243 94.00167175 -34.46224243 94.00167175 -35.47705078 93.47065735 C-47.64623857 86.84032344 -56.34935112 76.88307693 -60.56396484 63.60517883 C-61.59075156 59.33517112 -61.64322517 55.14638646 -61.5925293 50.77217102 C-61.58423096 49.84678528 -61.57593262 48.92139954 -61.56738281 47.9679718 C-61.39594767 41.03613533 -60.51249465 35.30252416 -57.1550293 29.14717102 C-56.4434668 27.77045227 -56.4434668 27.77045227 -55.7175293 26.36592102 C-48.32582574 13.43043979 -36.24202598 6.32962428 -22.45581055 1.72529602 C-15.01833944 -0.14354222 -7.62628804 -0.0011323 0 0 Z " fill="#FDFDFD" transform="translate(62.155029296875,34.85282897949219)"/>
<path d="M0 0 C2.34547672 -0.00407148 4.69095152 -0.00941658 7.03642273 -0.01593018 C13.37102363 -0.02954014 19.70547702 -0.02433147 26.04008031 -0.01479292 C32.01312809 -0.0079392 37.98616276 -0.01318712 43.95921021 -0.0175745 C56.5086541 -0.02610438 69.05803196 -0.01633181 81.60746502 -0.0001734 C92.34999667 0.01323072 103.09243104 0.01089625 113.83496094 -0.00292969 C126.344663 -0.01902275 138.85430741 -0.0252839 151.36401838 -0.0160929 C157.97339621 -0.01136777 164.58271999 -0.01075506 171.1920948 -0.02070236 C177.40648213 -0.02940305 183.6206867 -0.02329346 189.8350544 -0.00601959 C192.10814613 -0.00207148 194.38125339 -0.00315988 196.65433884 -0.00980759 C216.11461073 -0.06144921 234.98924159 1.22640925 249.91381836 15.51318359 C260.46401974 27.34518514 263.3959495 39.71070391 262.76049805 55.16601562 C261.90673366 66.01931656 255.78520105 76.67535393 248.02319336 84.13818359 C231.6437776 97.29230899 213.55860471 97.83425431 193.57617188 97.76049805 C191.26202227 97.76292949 188.94787371 97.76665222 186.63372803 97.77156067 C180.37956839 97.78092548 174.12556646 97.77158102 167.87141919 97.75822854 C161.30766624 97.74686502 154.7439205 97.75102537 148.18016052 97.75297546 C137.15898164 97.75439826 126.13786117 97.7428806 115.11669922 97.72436523 C103.8061334 97.70536898 92.49563923 97.69827758 81.18505859 97.70385742 C67.5149919 97.71058143 53.84497287 97.70724254 40.17490959 97.69475365 C34.96993356 97.69012613 29.76497698 97.68922579 24.55999947 97.69133949 C18.42280539 97.69323245 12.28570237 97.68504139 6.14852905 97.6692791 C3.90488499 97.66506083 1.66123165 97.664169 -0.58241463 97.6669693 C-39.33114288 97.70797121 -39.33114288 97.70797121 -54.41430664 84.38818359 C-55.4487793 83.49292969 -55.4487793 83.49292969 -56.50415039 82.57958984 C-61.6725075 77.79621278 -64.77982569 72.89455321 -67.41430664 66.38818359 C-67.89383789 65.25123047 -67.89383789 65.25123047 -68.38305664 64.09130859 C-72.15366628 53.68721902 -71.95216006 40.49914217 -67.41430664 30.38818359 C-61.61396899 18.2515035 -52.21075234 9.07713973 -39.61709499 4.12313271 C-26.53310312 -0.24227453 -13.62957728 -0.03989903 0 0 Z " fill="#FDFDFD" transform="translate(115.414306640625,155.61181640625)"/>
<path d="M0 0 C92.4 0 184.8 0 280 0 C281.98 5.445 281.98 5.445 284 11 C285.00670711 13.30723782 286.04250767 15.60233286 287.125 17.875 C292 28.15544041 292 28.15544041 292 32 C292.66 32 293.32 32 294 32 C294.33 32.99 294.66 33.98 295 35 C293.74139978 35.00331015 292.48279957 35.00662029 291.18605995 35.01003075 C261.28860544 35.08910138 231.39120006 35.17834134 201.4938148 35.28005161 C197.81146923 35.29257002 194.12912338 35.30500286 190.44677734 35.31738281 C189.71370921 35.31984881 188.98064108 35.3223148 188.22535877 35.32485552 C176.36605072 35.36454558 164.50673319 35.39730951 152.64739759 35.42749982 C140.47256727 35.45864798 128.29777708 35.49727171 116.12299192 35.54279006 C108.61455948 35.57062787 101.1061563 35.59268123 93.59768622 35.60726251 C87.83369329 35.61908171 82.06977628 35.64131742 76.30583191 35.66738319 C73.94603401 35.67643767 71.58622046 35.68214422 69.2264061 35.68421364 C65.99804653 35.68755119 62.76996005 35.70306923 59.54165649 35.7215271 C58.61361163 35.71959237 57.68556676 35.71765763 56.72939932 35.71566427 C42.28608087 35.83863794 29.56345912 40.32185697 18 49 C16.74703125 49.92425781 16.74703125 49.92425781 15.46875 50.8671875 C8.16308149 57.17873023 2.74772488 67.73638684 1.76074219 77.32421875 C0.76007408 92.10503705 2.24481436 104.44365265 12.21484375 116.0859375 C13.09849609 117.03339844 13.09849609 117.03339844 14 118 C14.47566406 118.52851562 14.95132812 119.05703125 15.44140625 119.6015625 C19.23859735 123.30952457 23.84046203 125.7337863 28.5 128.1875 C29.109646 128.52080322 29.71929199 128.85410645 30.34741211 129.19750977 C44.11162882 136.10481458 59.67721692 135.41693701 74.64501953 135.3371582 C76.89524834 135.33635041 79.14547802 135.33694925 81.39570618 135.33883667 C86.21151675 135.34038894 91.02720103 135.33308439 95.84299088 135.31899452 C103.45713001 135.29775817 111.07111732 135.30264779 118.68527222 135.3120575 C129.35562056 135.32330755 140.02593741 135.32849381 150.69628906 135.32397461 C151.37134577 135.32369486 152.04640248 135.3234151 152.74191545 135.32312687 C162.3454954 135.31872746 171.94904275 135.30538088 181.55260788 135.28851613 C182.2306965 135.2873268 182.90878512 135.28613748 183.60742188 135.28491211 C184.62330305 135.28312172 184.62330305 135.28312172 185.65970708 135.28129516 C196.95020652 135.261997 208.24056096 135.26609677 219.53106582 135.28844708 C227.10252678 135.30213685 234.6733163 135.28892203 242.24471021 135.25584948 C246.9442258 135.24153563 251.64343797 135.25212002 256.34293175 135.26983261 C258.52425693 135.27301658 260.70562478 135.26588215 262.88687706 135.24776649 C265.86069918 135.22452451 268.83216472 135.23798573 271.80593872 135.26069641 C272.67216988 135.24506395 273.53840103 135.22943149 274.43088162 135.21332532 C280.16603488 135.31087141 280.16603488 135.31087141 282.58844543 137.31257665 C283.91837883 138.91730022 283.91837883 138.91730022 286 142 C287.64639965 143.35827971 289.31295807 144.69254251 291 146 C292.68662458 147.64646685 294.35511706 149.31183067 296 151 C296.598125 151.556875 297.19625 152.11375 297.8125 152.6875 C299 154 299 154 299 156 C297.94608252 156.00238835 296.89216503 156.00477671 295.80631065 156.00723743 C270.12315008 156.06611807 244.44008267 156.14205373 218.75702477 156.23571491 C206.33672308 156.28061743 193.91644971 156.32004488 181.49609375 156.34643555 C170.66636221 156.36946052 159.83672071 156.40290876 149.00706065 156.44870156 C143.27661927 156.47257308 137.54626673 156.49134161 131.81577682 156.49761391 C126.41328285 156.50369225 121.01101599 156.52379095 115.60860634 156.55427551 C113.63428262 156.56301183 111.65992917 156.56678754 109.68558693 156.56500816 C90.79967976 156.55336959 72.83587383 158.15921575 58.4375 171.875 C54.42453633 176.23005238 51.32338806 180.5504272 49 186 C48.68289062 186.73347656 48.36578125 187.46695313 48.0390625 188.22265625 C43.32086664 201.18687331 45.45154283 214.73498942 51 227 C52.72571337 229.99629354 54.64565068 232.47706765 57 235 C57.51175781 235.60070312 58.02351563 236.20140625 58.55078125 236.8203125 C68.35021799 247.62541936 82.09944302 251.11391453 96.125 252.1875 C97.55972656 252.3102832 97.55972656 252.3102832 99.0234375 252.43554688 C101.34834548 252.63316405 103.67358492 252.82116848 106 253 C102.78846402 256.48681049 100.38894408 258.3452582 96 260 C93.44448968 261.55650409 91.00898229 263.27853276 88.5625 265 C87.51231689 265.73259033 87.51231689 265.73259033 86.44091797 266.47998047 C84.99522339 267.49043321 83.5512167 268.50330507 82.10888672 269.51855469 C80.14288274 270.8996281 78.16850109 272.26768795 76.19140625 273.6328125 C75.00214882 274.46288968 73.81332516 275.29358876 72.625 276.125 C71.58601563 276.84945313 70.54703125 277.57390625 69.4765625 278.3203125 C64.76835786 281.94933316 60.4185059 286.02334469 56 290 C37.52 290 19.04 290 0 290 C0 194.3 0 98.6 0 0 Z " fill="#C03B7C" transform="translate(0,0)"/>
<path d="M0 0 C4.88237926 7.62871759 7.93472054 16.22273303 11.30664062 24.59570312 C13.03475449 28.83323847 14.91297224 32.87358813 17.15258789 36.86743164 C18 39 18 39 19 46 C-87.59 46 -194.18 46 -304 46 C-299.72530548 41.0128564 -296.31925785 37.39500795 -291.125 33.75 C-290.48369141 33.29036865 -289.84238281 32.8307373 -289.18164062 32.35717773 C-287.12911736 30.89304116 -285.06617927 29.44479001 -283 28 C-282.29327148 27.50322754 -281.58654297 27.00645508 -280.85839844 26.49462891 C-278.74324271 25.01094191 -276.623261 23.53456109 -274.5 22.0625 C-273.85434082 21.61422852 -273.20868164 21.16595703 -272.54345703 20.70410156 C-261.30709758 13 -261.30709758 13 -257 13 C-256.67 12.01 -256.34 11.02 -256 10 C-252.66877685 8.33438843 -248.93002227 8.85744365 -245.26713562 8.86196899 C-244.35171629 8.85914771 -243.43629696 8.85632643 -242.49313766 8.85341966 C-239.40646811 8.84504532 -236.3198343 8.84373295 -233.2331543 8.84228516 C-231.02737832 8.83761878 -228.82160331 8.83247551 -226.61582947 8.82688904 C-221.8544238 8.81558988 -217.09302446 8.80716426 -212.33160973 8.80076981 C-204.79614804 8.79010142 -197.26073144 8.76985739 -189.72529602 8.74765015 C-179.15207381 8.71708529 -168.57885021 8.68786653 -158.00561523 8.66210938 C-157.33427733 8.66047119 -156.66293943 8.65883301 -155.97125796 8.65714519 C-145.11641021 8.63091704 -134.26155906 8.61224368 -123.40669312 8.59551747 C-112.25217807 8.57805275 -101.09772219 8.54896908 -89.94325763 8.5106281 C-83.68469901 8.48959433 -77.4262346 8.47410605 -71.16763878 8.47182083 C-65.2718538 8.46966579 -59.3762646 8.45370903 -53.48053932 8.42743111 C-51.32356981 8.42026785 -49.16657649 8.41812261 -47.00959778 8.42153358 C-26.98795305 8.51566941 -26.98795305 8.51566941 -8.375 1.75 C-3.30807577 -1.10269192 -3.30807577 -1.10269192 0 0 Z " fill="#7D6166" transform="translate(360,244)"/>
<path d="M0 0 C92.4 0 184.8 0 280 0 C281.98 5.445 281.98 5.445 284 11 C285.00670711 13.30723782 286.04250767 15.60233286 287.125 17.875 C292 28.15544041 292 28.15544041 292 32 C292.66 32 293.32 32 294 32 C294.33 32.99 294.66 33.98 295 35 C293.74139978 35.00331015 292.48279957 35.00662029 291.18605995 35.01003075 C261.28860544 35.08910138 231.39120006 35.17834134 201.4938148 35.28005161 C197.81146923 35.29257002 194.12912338 35.30500286 190.44677734 35.31738281 C189.71370921 35.31984881 188.98064108 35.3223148 188.22535877 35.32485552 C176.36605072 35.36454558 164.50673319 35.39730951 152.64739759 35.42749982 C140.47256727 35.45864798 128.29777708 35.49727171 116.12299192 35.54279006 C108.61455948 35.57062787 101.1061563 35.59268123 93.59768622 35.60726251 C87.83369329 35.61908171 82.06977628 35.64131742 76.30583191 35.66738319 C73.94603401 35.67643767 71.58622046 35.68214422 69.2264061 35.68421364 C65.99804653 35.68755119 62.76996005 35.70306923 59.54165649 35.7215271 C58.61361163 35.71959237 57.68556676 35.71765763 56.72939932 35.71566427 C42.28608087 35.83863794 29.56345912 40.32185697 18 49 C16.74703125 49.92425781 16.74703125 49.92425781 15.46875 50.8671875 C7.17691017 58.03070735 2.92782562 69.45365986 1 80 C0.67 80 0.34 80 0 80 C0 53.6 0 27.2 0 0 Z " fill="#D73F36" transform="translate(0,0)"/>
<path d="M0 0 C48.18 0 96.36 0 146 0 C146 95.7 146 191.4 146 290 C145.34 290 144.68 290 144 290 C143.99945523 288.92123565 143.99891047 287.84247129 143.99834919 286.73101711 C143.98393055 260.4382845 143.94081776 234.145717 143.86790943 207.8530798 C143.83330987 195.13795506 143.8079105 182.42293816 143.80444336 169.70776367 C143.80139648 158.6205249 143.78080859 147.53347845 143.73947543 136.44631392 C143.71820966 130.57996006 143.70551184 124.71387918 143.71384621 118.8474865 C143.72142693 113.31601404 143.70540057 107.78509287 143.67193985 102.25372124 C143.66375489 100.23305383 143.66389897 98.2123311 143.67340279 96.19166946 C143.74380259 79.5659416 141.97380128 64.70814003 130 52 C114.46100496 38.25305901 97.04163242 35.55925466 77.109375 35.48828125 C75.31047363 35.47140297 73.51158384 35.45324858 71.71270752 35.43388367 C67.01767595 35.38671909 62.3226913 35.35669403 57.62750244 35.33044434 C52.82058451 35.30046801 48.01382773 35.25399708 43.20703125 35.20898438 C33.8047724 35.12333372 24.40248002 35.05581998 15 35 C14.505 33.515 14.505 33.515 14 32 C13.34 32 12.68 32 12 32 C0 5.06051873 0 5.06051873 0 0 Z " fill="#558B93" transform="translate(280,0)"/>
<path d="M0 0 C0.01417969 0.90878906 0.02835938 1.81757813 0.04296875 2.75390625 C0.53301569 15.66730536 2.8698876 28.21612646 12 38 C12.51175781 38.60070312 13.02351563 39.20140625 13.55078125 39.8203125 C23.35021799 50.62541936 37.09944302 54.11391453 51.125 55.1875 C52.08148438 55.26935547 53.03796875 55.35121094 54.0234375 55.43554688 C56.34834548 55.63316405 58.67358492 55.82116848 61 56 C57.78846402 59.48681049 55.38894408 61.3452582 51 63 C48.44448968 64.55650409 46.00898229 66.27853276 43.5625 68 C42.86237793 68.48839355 42.16225586 68.97678711 41.44091797 69.47998047 C39.99522339 70.49043321 38.5512167 71.50330507 37.10888672 72.51855469 C35.14288274 73.8996281 33.16850109 75.26768795 31.19140625 76.6328125 C30.00214882 77.46288968 28.81332516 78.29358876 27.625 79.125 C26.06652344 80.21167969 26.06652344 80.21167969 24.4765625 81.3203125 C22.38369779 82.81848226 20.70687829 84.31267169 18.93798828 86.19953918 C14.49547064 90.80306782 11.24010339 93.56116397 4.72412109 94.02172852 C2.40673792 94.0203225 0.08900714 93.97057941 -2.2265625 93.87890625 C-3.45539154 93.86617172 -4.68422058 93.85343719 -5.95028687 93.84031677 C-9.84393461 93.79025997 -13.73278083 93.67740213 -17.625 93.5625 C-20.27727605 93.51731835 -22.92962576 93.47626028 -25.58203125 93.43945312 C-32.05630321 93.34065837 -38.52780857 93.19039808 -45 93 C-45.18565712 84.62890584 -45.32765072 76.25867646 -45.41449738 67.8860302 C-45.45618836 63.99782292 -45.51269486 60.11102746 -45.60351562 56.22363281 C-45.69067482 52.46931303 -45.73831995 48.71634755 -45.75901794 44.9610939 C-45.77375964 43.53121747 -45.8025505 42.10141232 -45.84584045 40.67211533 C-46.17114021 29.48303776 -46.17114021 29.48303776 -43.28263855 25.82527161 C-41.24751853 24.27336081 -39.29640773 23.11824134 -37 22 C-35.90300781 21.30777344 -34.80601563 20.61554688 -33.67578125 19.90234375 C-32.01095703 18.92974609 -32.01095703 18.92974609 -30.3125 17.9375 C-22.72799418 13.47164283 -15.25484726 8.83519742 -7.79418945 4.16577148 C-6.92624756 3.62509033 -6.05830566 3.08440918 -5.1640625 2.52734375 C-3.99544678 1.79632446 -3.99544678 1.79632446 -2.80322266 1.05053711 C-1 0 -1 0 0 0 Z " fill="#CDB961" transform="translate(45,197)"/>
<path d="M0 0 C28.24778761 0 28.24778761 0 35.09765625 5.765625 C40.04922433 10.93071039 42.58904499 16.30140494 43.375 23.375 C42.75136411 29.40348023 41.64394173 35.04504227 37.6875 39.75 C37.130625 40.4925 36.57375 41.235 36 42 C36.8849246 46.97770086 39.66471551 51.533485 42 56 C44.39066689 53.60933311 44.95094656 51.74580421 46.06640625 48.55859375 C46.46545166 47.42848877 46.86449707 46.29838379 47.27563477 45.1340332 C47.70030029 43.91417725 48.12496582 42.69432129 48.5625 41.4375 C49.23043242 39.54373536 49.89837319 37.64997358 50.56700134 35.75645447 C51.25597028 33.80338815 51.94263057 31.84952194 52.62890625 29.89550781 C54.75080901 23.85974789 56.90392589 17.83522643 59.0625 11.8125 C59.44414307 10.73863037 59.82578613 9.66476074 60.21899414 8.55834961 C60.57082764 7.57616455 60.92266113 6.59397949 61.28515625 5.58203125 C61.59332275 4.71811768 61.90148926 3.8542041 62.21899414 2.96411133 C63 1 63 1 64 0 C66.53049402 -0.07313567 69.03304837 -0.09247527 71.5625 -0.0625 C72.62887695 -0.05573242 72.62887695 -0.05573242 73.71679688 -0.04882812 C75.47790013 -0.03700864 77.23896036 -0.01907263 79 0 C82.15435826 6.78927472 84.80329224 13.70139052 87.328125 20.74609375 C87.72199402 21.83841812 88.11586304 22.93074249 88.52166748 24.0561676 C89.3468215 26.34731794 90.17030376 28.63907099 90.9921875 30.93139648 C92.25549 34.45280316 93.52583387 37.97161455 94.796875 41.49023438 C95.59937843 43.7212031 96.40147638 45.95231773 97.203125 48.18359375 C97.58430481 49.23872665 97.96548462 50.29385956 98.35821533 51.38096619 C98.7056781 52.3528035 99.05314087 53.32464081 99.41113281 54.32592773 C99.71883606 55.1825853 100.02653931 56.03924286 100.34356689 56.92185974 C101 59 101 59 101 61 C95.72 61 90.44 61 85 61 C84.505 57.04 84.505 57.04 84 53 C76.08 53.33 68.16 53.66 60 54 C59.34 56.31 58.68 58.62 58 61 C47.44 61 36.88 61 26 61 C23 52 23 52 23 49 C20.36 49 17.72 49 15 49 C15 52.96 15 56.92 15 61 C10.05 61 5.1 61 0 61 C0 40.87 0 20.74 0 0 Z " fill="#CE2642" transform="translate(25,55)"/>
<path d="M0 0 C4.25756129 0.07218561 8.51504554 0.06266013 12.77310967 0.06391168 C19.90768128 0.0777279 27.03982571 0.14821597 34.17354608 0.25731683 C42.41415148 0.38301219 50.6525846 0.43529432 58.89409345 0.44517606 C67.69670121 0.45597397 76.49853279 0.5125319 85.30081606 0.58653688 C87.82904604 0.60519547 90.357217 0.61612026 92.88549638 0.6256392 C96.85326438 0.64335217 100.81948675 0.69230968 104.78660798 0.76545167 C106.24053905 0.78774387 107.69466452 0.79998574 109.1487658 0.80139184 C120.15211389 0.82234775 120.15211389 0.82234775 123.35540986 3.04220796 C124.69217706 4.64704156 124.69217706 4.64704156 126.44527459 7.71849847 C128.09167424 9.07677818 129.75823267 10.41104098 131.44527459 11.71849847 C133.13189917 13.36496532 134.80039166 15.03032914 136.44527459 16.71849847 C137.04339959 17.27537347 137.64152459 17.83224847 138.25777459 18.40599847 C139.44527459 19.71849847 139.44527459 19.71849847 139.44527459 21.71849847 C75.75527459 21.71849847 12.06527459 21.71849847 -53.55472541 21.71849847 C-51.90472541 20.06849847 -50.25472541 18.41849847 -48.55472541 16.71849847 C-47.61367279 15.49877156 -46.69262032 14.2631461 -45.79952216 13.0078814 C-33.75996092 -2.0365926 -17.58913779 -0.35833705 0 0 Z " fill="#D76F6F" transform="translate(159.55472540855408,134.28150153160095)"/>
<path d="M0 0 C7.24263568 5.03669207 12.17994166 11.63877438 15 20 C16.08278965 29.49329531 14.91435375 38.37015465 9.38671875 46.3203125 C3.321193 53.60970265 -3.98725873 58.18405212 -13.484375 59.2890625 C-23.20925059 59.62127875 -31.63664122 56.35107028 -39 50 C-45.00164228 43.1746029 -48.72563181 34.24639075 -48.28125 25.0625 C-46.96982189 15.44536056 -43.02191842 9.02191842 -36.25 2.25 C-25.16767991 -5.42237545 -11.92111083 -6.91995988 0 0 Z " fill="#BD6374" transform="translate(303,58)"/>
<path d="M0 0 C4.95 0 9.9 0 15 0 C17.4281045 6.07026124 19.26097455 12.22303561 21.015625 18.51953125 C22.08869152 22.31358786 23.26298485 26.06777796 24.484375 29.81640625 C25.06405246 32.27125245 25.08835273 34.48636475 25 37 C25.66 37 26.32 37 27 37 C27.0825 35.95457031 27.165 34.90914062 27.25 33.83203125 C28.03265988 27.5776418 30.0965181 21.67415026 32 15.6875 C32.36867188 14.50865234 32.73734375 13.32980469 33.1171875 12.11523438 C34.38535248 8.06775163 35.65870596 4.02388212 37 0 C41.29 0 45.58 0 50 0 C50.54269531 1.77246094 51.08539063 3.54492188 51.64453125 5.37109375 C52.3671306 7.72657995 53.08979003 10.08204773 53.8125 12.4375 C54.16892578 13.60216797 54.52535156 14.76683594 54.89257812 15.96679688 C55.24384766 17.11083984 55.59511719 18.25488281 55.95703125 19.43359375 C56.27647705 20.47572021 56.59592285 21.51784668 56.92504883 22.59155273 C58.23446558 26.74344174 59.62330997 30.8699299 61 35 C64.3 23.45 67.6 11.9 71 0 C76.28 0 81.56 0 87 0 C84.96604782 7.52377892 82.86031779 15.02143291 80.6796875 22.50390625 C80.37555939 23.54900864 80.07143127 24.59411102 79.75808716 25.67088318 C79.12161453 27.8566623 78.48463599 30.04229417 77.84716797 32.2277832 C76.86867589 35.58419289 75.89327109 38.94149038 74.91796875 42.29882812 C74.29706254 44.42974215 73.67597539 46.56060347 73.0546875 48.69140625 C72.76302704 49.69651749 72.47136658 50.70162872 72.17086792 51.73719788 C71.900336 52.6625383 71.62980408 53.58787872 71.35107422 54.54125977 C71.11363495 55.35635513 70.87619568 56.1714505 70.63156128 57.01124573 C70 59 70 59 69 61 C64.05 61 59.1 61 54 61 C51.10815482 51.82871957 48.27257418 42.6517217 45.61254883 33.41040039 C44.53258901 29.62034517 44.53258901 29.62034517 43 26 C39.7 37.55 36.4 49.1 33 61 C28.05 61 23.1 61 18 61 C15.11736759 53.71563366 12.90909612 46.2573783 10.6875 38.75 C10.29002744 37.41293541 9.89232042 36.07594051 9.49438477 34.73901367 C8.89677869 32.73116492 8.29937366 30.72325937 7.70310974 28.7150116 C6.51084491 24.70213434 5.30229738 20.69465785 4.078125 16.69140625 C3.79751221 15.77069336 3.51689941 14.84998047 3.2277832 13.90136719 C2.71375796 12.21748592 2.19682316 10.53448915 1.67651367 8.85253906 C0.74877495 5.79935659 0 3.21055708 0 0 Z " fill="#848591" transform="translate(318,55)"/>
<path d="M0 0 C4.95 0 9.9 0 15 0 C15.98742187 1.91425781 16.97484375 3.82851562 17.9921875 5.80078125 C18.95156145 7.65769041 19.91154221 9.51428464 20.87158203 11.37084961 C21.53758204 12.65958393 22.20295243 13.94864383 22.86767578 15.23803711 C23.82418441 17.09314913 24.78296393 18.9470719 25.7421875 20.80078125 C26.3182373 21.91622314 26.89428711 23.03166504 27.48779297 24.1809082 C28.98830448 27.08591751 28.98830448 27.08591751 31 30 C31.33 20.1 31.66 10.2 32 0 C36.95 0 41.9 0 47 0 C47 20.13 47 40.26 47 61 C42.05 61 37.1 61 32 61 C31.01257813 59.08574219 30.02515625 57.17148438 29.0078125 55.19921875 C28.04843855 53.34230959 27.08845779 51.48571536 26.12841797 49.62915039 C25.46241796 48.34041607 24.79704757 47.05135617 24.13232422 45.76196289 C23.17581559 43.90685087 22.21703607 42.0529281 21.2578125 40.19921875 C20.6817627 39.08377686 20.10571289 37.96833496 19.51220703 36.8190918 C18.01169552 33.91408249 18.01169552 33.91408249 16 31 C15.67 40.9 15.34 50.8 15 61 C10.05 61 5.1 61 0 61 C0 40.87 0 20.74 0 0 Z " fill="#F7A965" transform="translate(177,174)"/>
<path d="M0 0 C24 0 24 0 33 3 C37.88008453 7.98175295 39.27775047 10.93480144 39.234375 17.6796875 C38.91086049 20.88248113 37.58173414 23.23196526 36 26 C36 30.27840261 38.28404432 31.82034457 41 35 C42.78051245 40.34153735 42.70509123 45.07088389 40.4375 50.1875 C37.96816236 54.56691763 35.423103 56.57442739 31 59 C21 61 21 61 0 61 C0 40.87 0 20.74 0 0 Z " fill="#C24C57" transform="translate(210,55)"/>
<path d="M0 0 C28.68965517 0 28.68965517 0 35.4375 6.3125 C36.36369141 7.14201172 36.36369141 7.14201172 37.30859375 7.98828125 C41.403065 12.85814891 42.55462954 17.49828468 42.5 23.75 C42.49863037 24.45012207 42.49726074 25.15024414 42.49584961 25.87158203 C42.31221247 32.12676717 40.42569413 36.76598864 37 42 C36.505 42.99 36.505 42.99 36 44 C37.24461313 46.5657273 38.53642171 49.02205988 39.9375 51.5 C44 58.75688648 44 58.75688648 44 61 C38.39 61 32.78 61 27 61 C26.319375 59.205625 25.63875 57.41125 24.9375 55.5625 C23.67196528 52.53467335 23.67196528 52.53467335 22 50 C18.34378592 48.61516078 18.34378592 48.61516078 15 49 C15 52.96 15 56.92 15 61 C10.05 61 5.1 61 0 61 C0 40.87 0 20.74 0 0 Z " fill="#AC6C82" transform="translate(274,174)"/>
<path d="M0 0 C4.95 0 9.9 0 15 0 C15.65226563 1.24394531 16.30453125 2.48789062 16.9765625 3.76953125 C17.85932939 5.45054479 18.7421445 7.131533 19.625 8.8125 C20.05167969 9.62654297 20.47835937 10.44058594 20.91796875 11.27929688 C24.21661223 17.55656618 27.60327819 23.77267669 31 30 C31.33 20.1 31.66 10.2 32 0 C36.95 0 41.9 0 47 0 C47 19.8 47 39.6 47 60 C42.05 60 37.1 60 32 60 C30.10191683 56.5428852 28.20648735 53.0843579 26.3125 49.625 C25.78205078 48.65949219 25.25160156 47.69398437 24.70507812 46.69921875 C24.17978516 45.73886719 23.65449219 44.77851562 23.11328125 43.7890625 C22.63673096 42.91975098 22.16018066 42.05043945 21.66918945 41.15478516 C19.36999823 36.8092902 17.19861805 32.39723611 15 28 C14.67 38.56 14.34 49.12 14 60 C9.38 60 4.76 60 0 60 C0 40.2 0 20.4 0 0 Z " fill="#C23A43" transform="translate(154,55)"/>
<path d="M0 0 C7.39457857 5.39188021 10.72612823 14.23324505 12.125 22.90625 C7.175 22.90625 2.225 22.90625 -2.875 22.90625 C-3.535 21.50375 -4.195 20.10125 -4.875 18.65625 C-7.2255857 14.45168121 -9.30891544 12.32026871 -13.76171875 10.4921875 C-18.53854513 9.16774396 -22.40736766 9.36999972 -27.125 11.09375 C-30.6927811 13.44524209 -32.96721079 16.09067157 -34.875 19.90625 C-35.39613171 25.13465334 -35.51773534 29.54661754 -33.25 34.34375 C-29.98930555 37.86186769 -27.39637081 40.54077443 -22.4765625 41.25390625 C-17.25861844 41.43410552 -13.23253842 41.01877744 -8.875 37.90625 C-6.40767326 34.68501786 -4.6922083 31.54066661 -2.875 27.90625 C2.075 27.90625 7.025 27.90625 12.125 27.90625 C10.50936634 37.9231787 6.91463936 45.14405088 -1.25 51.40625 C-5.72970877 54.4007723 -9.49212636 56.44255677 -14.875 56.90625 C-15.72835937 56.98617187 -16.58171875 57.06609375 -17.4609375 57.1484375 C-26.67050415 57.58698829 -33.60061272 55.0873955 -40.6875 49.21875 C-47.85839354 42.42861187 -50.9501646 35.15636628 -51.3125 25.40625 C-51.22117102 16.62040167 -48.54466691 10.17005345 -42.82421875 3.5234375 C-29.98185821 -8.83990071 -14.9445925 -8.71767896 0 0 Z " fill="#E6A361" transform="translate(115.875,179.09375)"/>
<path d="M0 0 C11.55 0 23.1 0 35 0 C35 4.62 35 9.24 35 14 C28.4 14 21.8 14 15 14 C15 17.63 15 21.26 15 25 C20.94 25 26.88 25 33 25 C33 28.63 33 32.26 33 36 C27.06 36 21.12 36 15 36 C15 39.63 15 43.26 15 47 C21.6 47 28.2 47 35 47 C35 51.62 35 56.24 35 61 C23.45 61 11.9 61 0 61 C0 40.87 0 20.74 0 0 Z " fill="#FCCD58" transform="translate(134,174)"/>
<path d="M0 0 C11.55 0 23.1 0 35 0 C35 4.62 35 9.24 35 14 C28.4 14 21.8 14 15 14 C15 17.63 15 21.26 15 25 C20.94 25 26.88 25 33 25 C33 28.63 33 32.26 33 36 C27.06 36 21.12 36 15 36 C15 39.63 15 43.26 15 47 C21.6 47 28.2 47 35 47 C35 51.62 35 56.24 35 61 C23.45 61 11.9 61 0 61 C0 40.87 0 20.74 0 0 Z " fill="#977FA0" transform="translate(323,174)"/>
<path d="M0 0 C12.87 0 25.74 0 39 0 C39 4.62 39 9.24 39 14 C35.04 14 31.08 14 27 14 C27 29.51 27 45.02 27 61 C22.05 61 17.1 61 12 61 C12 45.49 12 29.98 12 14 C8.04 14 4.08 14 0 14 C0 9.38 0 4.76 0 0 Z " fill="#E58175" transform="translate(230,174)"/>
<path d="M0 0 C4.95 0 9.9 0 15 0 C15 20.13 15 40.26 15 61 C10.05 61 5.1 61 0 61 C0 40.87 0 20.74 0 0 Z " fill="#C53247" transform="translate(130,55)"/>
<path d="M0 0 C5.67458978 1.92721917 9.32050871 5.64101742 12 11 C12.76325018 17.84422703 12.19112923 22.48535628 8 28 C3.22660632 31.70181551 -0.68915807 33.44863429 -6.80859375 33.3359375 C-11.64877969 32.59394821 -15.45042622 30.04143288 -18.390625 26.16796875 C-21.08403676 21.35965974 -21.61500909 17.44722339 -21 12 C-17.45632291 1.95958157 -9.90506105 -0.82414992 0 0 Z " fill="#FDFCFC" transform="translate(291,69)"/>
<path d="M0 0 C6.2246433 5.94774636 14.13177324 13.900124 14.35546875 23.02734375 C14.0625 26.875 14.0625 26.875 13 33 C19.6 33 26.2 33 33 33 C33 37.62 33 42.24 33 47 C21.78 47 10.56 47 -1 47 C-1.02290439 40.4671604 -1.04283288 33.93445903 -1.05493164 27.40161133 C-1.05997317 25.17732268 -1.06680623 22.95303737 -1.07543945 20.72875977 C-1.08751298 17.53921691 -1.09322996 14.34971771 -1.09765625 11.16015625 C-1.10281754 10.15912369 -1.10797882 9.15809113 -1.11329651 8.12672424 C-1.11337204 7.20584518 -1.11344757 6.28496613 -1.11352539 5.33618164 C-1.115746 4.52121719 -1.11796661 3.70625275 -1.12025452 2.86659241 C-1 1 -1 1 0 0 Z " fill="#8B7096" transform="translate(325,188)"/>
<path d="M0 0 C0.33 0 0.66 0 1 0 C1.33 14.52 1.66 29.04 2 44 C5.96 44.495 5.96 44.495 10 45 C11.32 45.33 12.64 45.66 14 46 C14 42.04 14 38.08 14 34 C18.90094703 33.711709 22.21612143 33.66128362 26 37 C27.0625 39.9375 27.0625 39.9375 27 43 C25.375 45.375 25.375 45.375 23 47 C20.25 47.25 20.25 47.25 18 47 C18 47.66 18 48.32 18 49 C19.175625 49.0928125 19.175625 49.0928125 20.375 49.1875 C25.35288793 50.3032335 29.52453694 52.60306227 34 55 C33.67 55.99 33.34 56.98 33 58 C23.0380353 62.76527052 10.24461765 61 0 61 C0 40.87 0 20.74 0 0 Z " fill="#D06B76" transform="translate(210,55)"/>
<path d="M0 0 C11.22 0 22.44 0 34 0 C34 4.29 34 8.58 34 13 C27.4 13 20.8 13 14 13 C14 14.65 14 16.3 14 18 C13.01 18 12.02 18 11 18 C11 18.66 11 19.32 11 20 C9.73308493 20.67408308 8.46129251 21.33900497 7.1875 22 C6.47980469 22.37125 5.77210938 22.7425 5.04296875 23.125 C3 24 3 24 0 24 C0 16.08 0 8.16 0 0 Z " fill="#EDA062" transform="translate(135,175)"/>
<path d="M0 0 C0 9.57 0 19.14 0 29 C-4.95 29 -9.9 29 -15 29 C-16.72817695 25.92635656 -18.43249537 22.84319812 -20.125 19.75 C-20.61871094 18.87730469 -21.11242187 18.00460938 -21.62109375 17.10546875 C-22.07871094 16.26113281 -22.53632813 15.41679687 -23.0078125 14.546875 C-23.65194092 13.38430176 -23.65194092 13.38430176 -24.30908203 12.19824219 C-25 10 -25 10 -24.26904297 7.78125 C-22.50872441 5.31043733 -20.90007477 5.00874049 -18 4.25 C-17.113125 4.00765625 -16.22625 3.7653125 -15.3125 3.515625 C-13 3 -13 3 -11 3 C-10.525625 2.525625 -10.05125 2.05125 -9.5625 1.5625 C-6.31626575 -1.68373425 -4.49510863 -0.89902173 0 0 Z " fill="#CB7060" transform="translate(224,206)"/>
<path d="M0 0 C3.04172663 1.32588084 4.74056888 2.62591936 6.75 5.25 C9.54504779 8.66932242 12.61582463 11.04864474 16.1953125 13.6015625 C18.55020229 15.42634723 20.14300473 17.67875592 22 20 C24.58854724 22.11197362 27.27174719 24.0730059 30 26 C29.68991116 27.60463449 29.37683713 29.20869231 29.0625 30.8125 C28.80146484 32.15248047 28.80146484 32.15248047 28.53515625 33.51953125 C28 36 28 36 27 39 C22.05 39 17.1 39 12 39 C9.21875227 32.00637707 7.07094646 24.84180573 4.9284668 17.6340332 C4.30644994 15.54215329 3.67990915 13.45166677 3.05273438 11.36132812 C0 1.14778474 0 1.14778474 0 0 Z " fill="#AE788A" transform="translate(324,77)"/>
<path d="M0 0 C0 12.54 0 25.08 0 38 C-4.62 38 -9.24 38 -14 38 C-14 26.78 -14 15.56 -14 4 C-12.02 3.34 -10.04 2.68 -8 2 C-6.9275 1.62875 -5.855 1.2575 -4.75 0.875 C-2 0 -2 0 0 0 Z " fill="#BB5967" transform="translate(256,197)"/>
<path d="M0 0 C4.62 0 9.24 0 14 0 C14 10.23 14 20.46 14 31 C10.04 31.495 10.04 31.495 6 32 C3.2299003 33.96509909 3.2299003 33.96509909 1 36 C0.01 36 -0.98 36 -2 36 C-3.74013387 36.46038187 -5.46903479 36.96437448 -7.1875 37.5 C-8.08855469 37.7784375 -8.98960937 38.056875 -9.91796875 38.34375 C-10.60503906 38.5603125 -11.29210937 38.776875 -12 39 C-12.495 37.515 -12.495 37.515 -13 36 C-8.06632653 33.99308198 -5.44479395 33 0 33 C0 22.11 0 11.22 0 0 Z " fill="#F59065" transform="translate(210,175)"/>
<path d="M0 0 C1.02420044 0.00374634 1.02420044 0.00374634 2.0690918 0.00756836 C2.92929932 0.01667236 3.78950684 0.02577637 4.67578125 0.03515625 C7.41890625 0.05578125 10.16203125 0.07640625 12.98828125 0.09765625 C12.98828125 6.03765625 12.98828125 11.97765625 12.98828125 18.09765625 C8.03828125 18.09765625 3.08828125 18.09765625 -2.01171875 18.09765625 C-4.98171875 12.81765625 -7.95171875 7.53765625 -11.01171875 2.09765625 C-9.69171875 1.76765625 -8.37171875 1.43765625 -7.01171875 1.09765625 C-4.30455633 0.19526878 -2.77395107 -0.02085677 0 0 Z " fill="#CB565F" transform="translate(188.01171875,96.90234375)"/>
<path d="M0 0 C0 4.62 0 9.24 0 14 C-10.89 14 -21.78 14 -33 14 C-5 0 -5 0 0 0 Z " fill="#E0A754" transform="translate(169,221)"/>
<path d="M0 0 C0 6.27 0 12.54 0 19 C-4.62 19 -9.24 19 -14 19 C-14.48828125 8.35546875 -14.48828125 8.35546875 -14 5 C-10.01621409 1.78618952 -5.12354185 0 0 0 Z " fill="#D58A59" transform="translate(191,216)"/>
<path d="M0 0 C2.01822917 0.06510417 4.03645833 0.13020833 6.0546875 0.1953125 C1.66644712 4.95968777 1.66644712 4.95968777 -1.15625 6.046875 C-4.9364145 7.60341332 -8.0499358 9.85013385 -11.3828125 12.1953125 C-12.08293457 12.68370605 -12.78305664 13.17209961 -13.50439453 13.67529297 C-14.95008911 14.68574571 -16.3940958 15.69861757 -17.83642578 16.71386719 C-19.80242976 18.0949406 -21.77681141 19.46300045 -23.75390625 20.828125 C-30.22493734 25.33450174 -36.109705 29.92597951 -41.6640625 35.578125 C-44.57368612 37.64076914 -46.45666658 37.50608268 -49.9453125 37.1953125 C-49.6153125 36.2053125 -49.2853125 35.2153125 -48.9453125 34.1953125 C-48.2853125 34.1953125 -47.6253125 34.1953125 -46.9453125 34.1953125 C-46.7184375 33.5765625 -46.4915625 32.9578125 -46.2578125 32.3203125 C-44.56076458 29.57271111 -42.92017179 29.26321071 -39.9453125 28.1953125 C-39.6153125 27.5353125 -39.2853125 26.8753125 -38.9453125 26.1953125 C-37.9553125 25.8653125 -36.9653125 25.5353125 -35.9453125 25.1953125 C-35.4296875 24.6796875 -34.9140625 24.1640625 -34.3828125 23.6328125 C-33.9084375 23.1584375 -33.4340625 22.6840625 -32.9453125 22.1953125 C-32.2853125 22.1953125 -31.6253125 22.1953125 -30.9453125 22.1953125 C-30.6153125 21.2053125 -30.2853125 20.2153125 -29.9453125 19.1953125 C-29.2853125 19.1953125 -28.6253125 19.1953125 -27.9453125 19.1953125 C-26.5887961 17.88557252 -25.25973612 16.54729108 -23.9453125 15.1953125 C-20.64671182 12.23502984 -18.38478876 10.70268121 -13.9453125 10.1953125 C-13.9453125 9.5353125 -13.9453125 8.8753125 -13.9453125 8.1953125 C-13.39101562 7.92976563 -12.83671875 7.66421875 -12.265625 7.390625 C-11.54117188 7.03742188 -10.81671875 6.68421875 -10.0703125 6.3203125 C-9.35101563 5.97226562 -8.63171875 5.62421875 -7.890625 5.265625 C-5.79396231 4.22973707 -5.79396231 4.22973707 -3.9453125 2.1953125 C-1.9453125 0.1953125 -1.9453125 0.1953125 0 0 Z " fill="#D0C660" transform="translate(99.9453125,252.8046875)"/>
<path d="M0 0 C7 0 7 0 10.4375 2 C13.33408709 5.39112635 13.73500179 6.77430616 13.40234375 11.06640625 C12.82524086 13.83986189 11.74380283 15.78671179 10 18 C8 19 8 19 0 19 C0 12.73 0 6.46 0 0 Z " fill="#FDFCFC" transform="translate(289,189)"/>
<path d="M0 0 C8 0 8 0 11 2 C13.23495494 5.35243241 13.67920629 7.12916275 13.43359375 11.06640625 C12.75194607 14.10618646 11.19767713 15.86696044 9 18 C7 19 7 19 0 19 C0 12.73 0 6.46 0 0 Z " fill="#FDFBFB" transform="translate(40,70)"/>
<path d="M0 0 C2.10412898 2.10412898 2.58158372 3.23084857 3.5078125 5.9921875 C3.77207031 6.77980469 4.03632812 7.56742187 4.30859375 8.37890625 C4.57800781 9.20261719 4.84742187 10.02632812 5.125 10.875 C5.40214844 11.69097656 5.67929688 12.50695312 5.96484375 13.34765625 C6.22652344 14.13785156 6.48820312 14.92804688 6.7578125 15.7421875 C7.11576904 16.82282471 7.11576904 16.82282471 7.48095703 17.92529297 C8 20 8 20 8 24 C3.05 24 -1.9 24 -7 24 C-5.40554307 15.73781407 -2.73981931 7.93711014 0 0 Z " fill="#FAEEF0" transform="translate(96,73)"/>
<path d="M0 0 C8.36580311 -0.48497409 8.36580311 -0.48497409 11.125 1.625 C12.30519898 4.82839724 11.98667706 6.75806109 11 10 C7.91111478 12.05925681 7.29064073 12.2390374 3.8125 12.125 C1.9253125 12.063125 1.9253125 12.063125 0 12 C0 8.04 0 4.08 0 0 Z " fill="#FCF9FA" transform="translate(225,90)"/>
<path d="M0 0 C0 3.96 0 7.92 0 12 C-4.62 12 -9.24 12 -14 12 C-14 10.35 -14 8.7 -14 7 C-11.953125 4.98046875 -11.953125 4.98046875 -9.25 3.1875 C-8.36828125 2.58292969 -7.4865625 1.97835937 -6.578125 1.35546875 C-4 0 -4 0 0 0 Z " fill="#C64B60" transform="translate(168,103)"/>
<path d="M0 0 C0.495 1.485 0.495 1.485 1 3 C0.32195312 3.4125 -0.35609375 3.825 -1.0546875 4.25 C-11.4765541 10.71675379 -21.95091391 18.25958979 -30.1875 27.4375 C-32 29 -32 29 -34.75 29.25 C-35.4925 29.1675 -36.235 29.085 -37 29 C-26.01262046 17.66926485 -13.0925229 8.7283486 0 0 Z " fill="#CECD5C" transform="translate(67,261)"/>
<path d="M0 0 C6.0546875 -0.1953125 6.0546875 -0.1953125 8 0 C10 2 10 2 10.375 4.9375 C10 8 10 8 8.375 9.875 C5.43362303 11.26828383 3.21666704 11.21931821 0 11 C0 7.37 0 3.74 0 0 Z " fill="#FCF9F9" transform="translate(225,68)"/>
<path d="M0 0 C2.01822917 0.06510417 4.03645833 0.13020833 6.0546875 0.1953125 C1.66972167 4.95613255 1.66972167 4.95613255 -1.1953125 6.0703125 C-4.72562974 7.51453319 -7.67176536 9.61845055 -10.7578125 11.8203125 C-11.35529297 12.24054688 -11.95277344 12.66078125 -12.56835938 13.09375 C-14.03051815 14.12310978 -15.48836149 15.1585948 -16.9453125 16.1953125 C-17.2753125 15.5353125 -17.6053125 14.8753125 -17.9453125 14.1953125 C-19.2653125 14.5253125 -20.5853125 14.8553125 -21.9453125 15.1953125 C-20.1953125 12.6953125 -20.1953125 12.6953125 -17.9453125 10.1953125 C-16.6253125 10.1953125 -15.3053125 10.1953125 -13.9453125 10.1953125 C-13.9453125 9.5353125 -13.9453125 8.8753125 -13.9453125 8.1953125 C-13.39101562 7.92976563 -12.83671875 7.66421875 -12.265625 7.390625 C-11.54117188 7.03742188 -10.81671875 6.68421875 -10.0703125 6.3203125 C-9.35101563 5.97226562 -8.63171875 5.62421875 -7.890625 5.265625 C-5.79396231 4.22973707 -5.79396231 4.22973707 -3.9453125 2.1953125 C-1.9453125 0.1953125 -1.9453125 0.1953125 0 0 Z " fill="#E5CF52" transform="translate(99.9453125,252.8046875)"/>
<path d="M0 0 C3.63 0 7.26 0 11 0 C11 4.62 11 9.24 11 14 C7 13 7 13 5.33203125 10.56640625 C4.57986328 9.07947266 4.57986328 9.07947266 3.8125 7.5625 C3.04873047 6.07943359 3.04873047 6.07943359 2.26953125 4.56640625 C1.85058594 3.71949219 1.43164062 2.87257812 1 2 C0.67 1.34 0.34 0.68 0 0 Z " fill="#767BB0" transform="translate(347,221)"/>
<path d="M0 0 C0.495 1.485 0.495 1.485 1 3 C0.40461426 3.23710693 -0.19077148 3.47421387 -0.80419922 3.71850586 C-3.49482514 4.79060549 -6.18491806 5.8640362 -8.875 6.9375 C-9.81214844 7.31068359 -10.74929687 7.68386719 -11.71484375 8.06835938 C-12.61074219 8.42607422 -13.50664062 8.78378906 -14.4296875 9.15234375 C-15.25710449 9.48226318 -16.08452148 9.81218262 -16.93701172 10.15209961 C-19.01220506 10.97542634 -19.01220506 10.97542634 -21 12 C-20.67 12.66 -20.34 13.32 -20 14 C-23.96 14 -27.92 14 -32 14 C-21.55880782 8.77940391 -11.11179109 3.64793142 0 0 Z " fill="#EBB960" transform="translate(168,221)"/>
<path d="M0 0 C-1.52763464 4.08596252 -4.11084191 5.79826179 -7.625 8.25 C-8.62789062 8.95640625 -9.63078125 9.6628125 -10.6640625 10.390625 C-11.43492188 10.92171875 -12.20578125 11.4528125 -13 12 C-13.33 11.34 -13.66 10.68 -14 10 C-14.99 10.33 -15.98 10.66 -17 11 C-17 10.34 -17 9.68 -17 9 C-16.360625 8.896875 -15.72125 8.79375 -15.0625 8.6875 C-14.0415625 8.3471875 -14.0415625 8.3471875 -13 8 C-12.67 7.01 -12.34 6.02 -12 5 C-11.34 5 -10.68 5 -10 5 C-9.38125 4.360625 -8.7625 3.72125 -8.125 3.0625 C-5.45495053 0.4709814 -3.63676217 0 0 0 Z " fill="#DCCA5A" transform="translate(82,267)"/>
<path d="M0 0 C0.99 0.33 1.98 0.66 3 1 C1.35 2.32 -0.3 3.64 -2 5 C-2 3.68 -2 2.36 -2 1 C-1.34 0.67 -0.68 0.34 0 0 Z M-2 2 C-4.42195448 4.87255066 -6.59742703 5.70838919 -10.1875 6.6875 C-11.08855469 6.93886719 -11.98960937 7.19023437 -12.91796875 7.44921875 C-13.60503906 7.63097656 -14.29210937 7.81273437 -15 8 C-15.33 7.01 -15.66 6.02 -16 5 C-11.07015675 2.96006486 -7.42039575 1.59347032 -2 2 Z " fill="#E7916D" transform="translate(213,206)"/>
<path d="M0 0 C0.33 0.99 0.66 1.98 1 3 C0.26394531 3.45890625 -0.47210938 3.9178125 -1.23046875 4.390625 C-2.69419922 5.31101562 -2.69419922 5.31101562 -4.1875 6.25 C-5.15042969 6.85328125 -6.11335938 7.4565625 -7.10546875 8.078125 C-9.87405327 9.91637545 -12.43957951 11.88425949 -15 14 C-15.66 13.34 -16.32 12.68 -17 12 C-5.47835991 3.55353075 -5.47835991 3.55353075 0 0 Z " fill="#E1D355" transform="translate(67,261)"/>
<path d="M0 0 C0 0.66 0 1.32 0 2 C-0.84304687 2.27714844 -1.68609375 2.55429688 -2.5546875 2.83984375 C-4.19824219 3.38318359 -4.19824219 3.38318359 -5.875 3.9375 C-6.96554688 4.29714844 -8.05609375 4.65679687 -9.1796875 5.02734375 C-11.90758682 5.89914074 -11.90758682 5.89914074 -14 7 C-14 6.01 -14 5.02 -14 4 C-12.23141309 3.32739649 -10.46003984 2.66211605 -8.6875 2 C-7.70136719 1.62875 -6.71523437 1.2575 -5.69921875 0.875 C-3 0 -3 0 0 0 Z " fill="#E79F67" transform="translate(191,214)"/>
<path d="M0 0 C3.3 0 6.6 0 10 0 C7.01353231 1.99097846 4.40312738 2.94124926 1 4 C0.67 2.68 0.34 1.36 0 0 Z " fill="#FBBB56" transform="translate(158,221)"/>
<path d="M0 0 C0.99 0.33 1.98 0.66 3 1 C2.34 2.65 1.68 4.3 1 6 C0.67 5.34 0.34 4.68 0 4 C-1.32 4.33 -2.64 4.66 -4 5 C-2.68 3.35 -1.36 1.7 0 0 Z " fill="#E6D34B" transform="translate(82,263)"/>
</svg>
